<?xml version="1.0" standalone="no"?>
<!DOCTYPE svg PUBLIC "-//W3C//DTD SVG 20010904//EN"
 "http://www.w3.org/TR/2001/REC-SVG-20010904/DTD/svg10.dtd">
<svg version="1.0" xmlns="http://www.w3.org/2000/svg"
 width="512.000000pt" height="512.000000pt" viewBox="0 0 512.000000 512.000000"
 preserveAspectRatio="xMidYMid meet">
<metadata>
Created by potrace 1.11, written by Peter Selinger 2001-2013
</metadata>
<g transform="translate(0.000000,512.000000) scale(0.100000,-0.100000)"
fill="#000000" stroke="none">
<path d="M2206 4929 c-181 -104 -331 -189 -333 -189 -2 0 -32 -18 -67 -40 -35
-22 -66 -40 -70 -40 -3 0 -25 -12 -49 -27 -23 -15 -51 -32 -62 -38 -36 -20
-576 -330 -775 -445 -107 -62 -213 -122 -235 -135 -22 -12 -80 -45 -129 -73
-49 -29 -92 -52 -97 -52 -4 0 -19 -14 -33 -30 l-25 -30 2 -1275 2 -1275 24
-17 c14 -10 102 -63 195 -117 291 -169 409 -237 456 -264 89 -50 497 -286 585
-337 50 -29 106 -62 125 -73 31 -17 319 -183 680 -391 68 -40 136 -75 151 -78
22 -4 80 25 295 150 148 85 285 164 304 176 19 11 42 24 50 28 8 4 43 24 78
45 34 21 64 38 66 38 2 0 33 17 67 38 35 22 84 50 109 64 50 29 264 152 313
182 18 10 50 29 72 41 22 12 141 80 265 152 124 72 241 139 260 150 60 35 304
176 323 187 9 6 21 24 27 41 5 18 8 512 7 1287 l-2 1256 -24 26 c-14 14 -28
26 -33 26 -4 0 -29 13 -55 29 -27 15 -145 84 -263 151 -433 248 -616 353 -640
369 -14 8 -27 16 -30 16 -3 0 -48 26 -100 56 -52 31 -106 62 -120 69 -14 7
-27 16 -30 19 -3 4 -16 12 -30 18 -14 7 -47 26 -75 43 -27 16 -57 33 -65 37
-8 4 -69 38 -135 77 -66 38 -135 76 -152 85 -18 8 -33 19 -33 23 0 4 -5 8 -10
8 -6 0 -64 31 -129 69 -119 69 -213 123 -261 148 -14 7 -34 13 -45 12 -11 0
-168 -85 -349 -190z"/>
</g>
</svg>
